<svg width="40" height="40" viewBox="0 0 40 40" fill="none" xmlns="http://www.w3.org/2000/svg">
<path d="M38.5268 18.8141C38.0559 15.0473 36.4775 11.5052 33.9916 8.63635C31.5057 5.76753 28.2241 3.70118 24.5628 2.69911C21.643 1.78204 18.5145 1.76687 15.586 2.65559C12.2894 3.55399 9.28856 5.3071 6.887 7.73758C4.48545 10.1681 2.76839 13.1897 1.90953 16.4968C1.11922 19.6184 1.15638 22.8921 2.01734 25.995C2.87829 29.0979 4.53329 31.9227 6.81908 34.1908C7.43612 34.8123 8.24594 35.2058 9.11588 35.3069C9.98581 35.408 10.8643 35.2106 11.6074 34.7472C11.9041 34.5601 12.1547 34.3084 12.3407 34.011C12.5266 33.7136 12.643 33.3781 12.6813 33.0294C12.7195 32.6808 12.6786 32.328 12.5615 31.9973C12.4445 31.6667 12.2543 31.3667 12.0053 31.1198L10.748 29.8609C10.4566 29.5695 10.2929 29.1742 10.2929 28.7621C10.2929 28.35 10.4566 27.9548 10.748 27.6634C10.8867 27.4737 11.063 27.3147 11.2659 27.1962C11.4688 27.0778 11.694 27.0024 11.9273 26.9748C12.1606 26.9473 12.3971 26.9681 12.6221 27.036C12.847 27.104 13.0555 27.2175 13.2346 27.3696C15.4259 29.5594 21.9689 36.1599 21.972 36.1614C22.5446 36.7405 23.2257 37.2009 23.9764 37.5164C24.7271 37.8318 25.5326 37.9962 26.3469 38C27.4019 38.0016 28.4374 37.7169 29.3433 37.1763C32.5002 35.3471 35.0522 32.6333 36.6843 29.3701C38.3163 26.1069 38.9568 22.4372 38.5268 18.8141V18.8141ZM23.851 30.666C23.1239 29.936 22.7157 28.9477 22.7157 27.9175C22.7157 26.8872 23.1239 25.8989 23.851 25.169C24.5914 24.4633 25.5751 24.0697 26.5979 24.0697C27.6208 24.0697 28.6044 24.4633 29.3449 25.169C29.7058 25.5297 29.9922 25.958 30.1876 26.4294C30.383 26.9008 30.4837 27.4061 30.4838 27.9164C30.4839 28.4267 30.3836 28.932 30.1884 29.4035C29.9933 29.875 29.7072 30.3035 29.3464 30.6644C28.9857 31.0254 28.5574 31.3117 28.086 31.5071C27.6146 31.7025 27.1093 31.8032 26.599 31.8033C26.0887 31.8035 25.5834 31.7031 25.1119 31.508C24.6404 31.3128 24.2119 31.0267 23.851 30.666V30.666ZM23.4904 12.54C23.4904 11.7156 23.8179 10.925 24.4008 10.3421C24.9837 9.75915 25.7743 9.43167 26.5987 9.43167C27.2135 9.43167 27.8144 9.61397 28.3256 9.95551C28.8367 10.2971 29.2351 10.7825 29.4704 11.3505C29.7056 11.9184 29.7672 12.5434 29.6473 13.1464C29.5273 13.7493 29.2313 14.3032 28.7966 14.7379C28.3619 15.1726 27.808 15.4686 27.2051 15.5885C26.6021 15.7085 25.9772 15.6469 25.4092 15.4117C24.8412 15.1764 24.3558 14.778 24.0142 14.2668C23.6727 13.7557 23.4904 13.1547 23.4904 12.54V12.54ZM29.2407 21.8804C28.9146 21.5544 28.6926 21.139 28.6025 20.6868C28.5125 20.2345 28.5587 19.7658 28.7351 19.3398C28.9115 18.9137 29.2103 18.5496 29.5937 18.2934C29.9771 18.0372 30.4278 17.9005 30.8889 17.9005C31.35 17.9005 31.8008 18.0372 32.1841 18.2934C32.5675 18.5496 32.8663 18.9137 33.0428 19.3398C33.2192 19.7658 33.2653 20.2345 33.1753 20.6868C33.0853 21.139 32.8632 21.5544 32.5371 21.8804C32.32 22.097 32.0624 22.2686 31.7789 22.3855C31.4954 22.5023 31.1916 22.5621 30.885 22.5614C30.5783 22.5607 30.2749 22.4995 29.9919 22.3813C29.709 22.2631 29.4521 22.0902 29.2361 21.8726L29.2407 21.8804ZM19.4558 8.68568C19.8909 9.12026 20.1872 9.6741 20.3074 10.2771C20.4276 10.8802 20.3662 11.5053 20.131 12.0735C19.8959 12.6416 19.4975 13.1272 18.9863 13.4689C18.475 13.8106 17.874 13.993 17.2591 13.993C16.6442 13.993 16.0431 13.8106 15.5319 13.4689C15.0206 13.1272 14.6222 12.6416 14.3871 12.0735C14.1519 11.5053 14.0905 10.8802 14.2107 10.2771C14.3309 9.6741 14.6273 9.12026 15.0623 8.68568C15.6543 8.12104 16.441 7.80603 17.2591 7.80603C18.0772 7.80603 18.8638 8.12104 19.4558 8.68568V8.68568Z" fill="white"/>
</svg>
