<svg width="40" height="40" viewBox="0 0 40 40" fill="none" xmlns="http://www.w3.org/2000/svg">
<path d="M29.0352 33.8034H28.0484C27.9656 33.8034 27.8849 33.7773 27.8176 33.729C27.7504 33.6807 27.6999 33.6125 27.6735 33.534L17.7973 4.61004C17.6375 4.14161 17.3355 3.73471 16.9335 3.4461C16.5314 3.15748 16.0493 3.00153 15.5543 3H15.543C15.0459 3.00037 14.5614 3.15607 14.1572 3.44533C13.753 3.73459 13.4493 4.14294 13.2886 4.61329L3.44491 33.534C3.41792 33.6125 3.36716 33.6806 3.29968 33.7289C3.2322 33.7772 3.15134 33.8032 3.06837 33.8034H2.11403C1.90098 33.7966 1.68874 33.8327 1.48992 33.9095C1.29109 33.9864 1.10974 34.1024 0.95663 34.2507C0.80352 34.399 0.681779 34.5765 0.598639 34.7728C0.515499 34.9691 0.472656 35.1801 0.472656 35.3932C0.472656 35.6064 0.515499 35.8173 0.598639 36.0136C0.681779 36.2099 0.80352 36.3874 0.95663 36.5357C1.10974 36.684 1.29109 36.8 1.48992 36.8769C1.68874 36.9537 1.90098 36.9898 2.11403 36.983H6.89709C7.10603 36.9832 7.31295 36.9422 7.50603 36.8623C7.6991 36.7825 7.87453 36.6653 8.02227 36.5176C8.17001 36.3698 8.28716 36.1944 8.36702 36.0013C8.44687 35.8083 8.48787 35.6013 8.48766 35.3924C8.4932 35.0188 8.36274 34.6559 8.12057 34.3713C7.87841 34.0868 7.54107 33.8999 7.17138 33.8456C7.11551 33.8351 7.0626 33.8125 7.01635 33.7794C6.9701 33.7464 6.93162 33.7036 6.90358 33.6541C6.87543 33.6054 6.85797 33.5513 6.85237 33.4953C6.84678 33.4394 6.85317 33.3828 6.87112 33.3295L9.30566 26.1671C9.33265 26.0886 9.38341 26.0205 9.45089 25.9722C9.51838 25.924 9.59923 25.8979 9.68221 25.8977H21.4167C21.4997 25.8979 21.5805 25.924 21.648 25.9722C21.7155 26.0205 21.7663 26.0886 21.7932 26.1671L24.2391 33.3328C24.2571 33.386 24.2636 33.4424 24.2582 33.4984C24.2529 33.5543 24.2358 33.6085 24.2081 33.6573C24.1803 33.7062 24.1426 33.7487 24.0973 33.782C24.0521 33.8153 24.0003 33.8386 23.9454 33.8505C23.5822 33.9123 23.253 34.1018 23.017 34.3848C22.7811 34.6677 22.6539 35.0256 22.6583 35.394C22.6581 35.6029 22.6991 35.8099 22.779 36.0029C22.8588 36.196 22.976 36.3715 23.1237 36.5192C23.2714 36.6669 23.4469 36.7841 23.6399 36.8639C23.833 36.9438 24.0399 36.9848 24.2489 36.9846H29.0319C29.245 36.9914 29.4572 36.9553 29.6561 36.8785C29.8549 36.8017 30.0362 36.6856 30.1893 36.5373C30.3424 36.389 30.4642 36.2115 30.5473 36.0152C30.6305 35.819 30.6733 35.608 30.6733 35.3948C30.6733 35.1817 30.6305 34.9707 30.5473 34.7744C30.4642 34.5782 30.3424 34.4006 30.1893 34.2523C30.0362 34.104 29.8549 33.988 29.6561 33.9112C29.4572 33.8343 29.245 33.7983 29.0319 33.8051L29.0352 33.8034ZM11.0391 22.7165C10.9758 22.7166 10.9135 22.7015 10.8572 22.6726C10.801 22.6437 10.7524 22.6018 10.7156 22.5504C10.6788 22.499 10.6548 22.4395 10.6455 22.377C10.6363 22.3144 10.6421 22.2505 10.6625 22.1907L15.168 8.95651C15.1947 8.87783 15.2454 8.8095 15.313 8.7611C15.3805 8.7127 15.4615 8.68668 15.5446 8.68668C15.6277 8.68668 15.7087 8.7127 15.7762 8.7611C15.8437 8.8095 15.8944 8.87783 15.9211 8.95651L20.4396 22.1891C20.4597 22.2491 20.4653 22.313 20.4559 22.3756C20.4466 22.4382 20.4227 22.4978 20.3861 22.5494C20.3487 22.6002 20.2998 22.6415 20.2434 22.6697C20.1869 22.6979 20.1246 22.7123 20.0615 22.7117L11.0391 22.7165Z" fill="white"/>
<path d="M37.8855 33.8035H37.5284C37.4455 33.8033 37.3646 33.7772 37.2971 33.7289C37.2297 33.6806 37.1789 33.6125 37.1519 33.534L30.2443 13.316C30.0784 12.8233 29.762 12.3951 29.3398 12.0917C28.9176 11.7884 28.4108 11.6252 27.8909 11.6252C27.371 11.6252 26.8642 11.7884 26.442 12.0917C26.0198 12.3951 25.7034 12.8233 25.5375 13.316L23.6727 18.8083C23.6053 19.0059 23.5775 19.2148 23.5909 19.4231C23.6043 19.6314 23.6586 19.8351 23.7507 20.0224C23.8428 20.2097 23.9708 20.3771 24.1276 20.5149C24.2844 20.6528 24.4667 20.7584 24.6643 20.8257C24.8619 20.8931 25.0708 20.9209 25.2791 20.9075C25.4875 20.8941 25.6911 20.8398 25.8784 20.7477C26.0658 20.6556 26.2331 20.5276 26.371 20.3708C26.5088 20.214 26.6144 20.0316 26.6818 19.8341L27.5192 17.3784C27.5463 17.3003 27.597 17.2326 27.6644 17.1846C27.7317 17.1367 27.8123 17.1109 27.895 17.1109C27.9776 17.1109 28.0582 17.1367 28.1256 17.1846C28.1929 17.2326 28.2436 17.3003 28.2707 17.3784L30.6501 24.3574C30.6708 24.4172 30.6769 24.481 30.6679 24.5436C30.6589 24.6062 30.6351 24.6657 30.5984 24.7172C30.5617 24.7687 30.5132 24.8106 30.4569 24.8395C30.4007 24.8684 30.3384 24.8834 30.2751 24.8833H28.0662C27.6534 24.8965 27.2618 25.0698 26.9745 25.3665C26.6871 25.6632 26.5264 26.06 26.5264 26.4731C26.5264 26.8861 26.6871 27.283 26.9745 27.5796C27.2618 27.8763 27.6534 28.0496 28.0662 28.0628H31.6369C31.7198 28.063 31.8007 28.0891 31.8682 28.1374C31.9357 28.1857 31.9864 28.2538 32.0134 28.3322L33.7987 33.5454C33.8316 33.6358 33.8304 33.735 33.7955 33.8246C33.7606 33.9142 33.6942 33.988 33.6088 34.0323C33.3552 34.1619 33.1422 34.3589 32.9933 34.6018C32.8444 34.8446 32.7653 35.1238 32.7649 35.4086C32.7646 35.6174 32.8056 35.8242 32.8853 36.0172C32.9651 36.2102 33.0821 36.3855 33.2297 36.5332C33.3772 36.681 33.5525 36.7981 33.7454 36.8781C33.9383 36.9581 34.145 36.9992 34.3538 36.9992H37.8855C38.0986 37.006 38.3108 36.9699 38.5096 36.8931C38.7084 36.8163 38.8898 36.7003 39.0429 36.552C39.196 36.4037 39.3178 36.2261 39.4009 36.0298C39.484 35.8336 39.5269 35.6226 39.5269 35.4094C39.5269 35.1963 39.484 34.9853 39.4009 34.789C39.3178 34.5928 39.196 34.4152 39.0429 34.2669C38.8898 34.1186 38.7084 34.0026 38.5096 33.9258C38.3108 33.849 38.0986 33.8129 37.8855 33.8197V33.8035Z" fill="white"/>
</svg>
