<svg width="40" height="40" viewBox="0 0 40 40" fill="none" xmlns="http://www.w3.org/2000/svg">
<g clip-path="url(#clip0)">
<path d="M14 0C10.248 0 7.19995 3.048 7.19995 6.8C7.19995 9.232 8.47995 11.36 10.4 12.568V10.536C9.41595 9.59201 8.79995 8.264 8.79995 6.8C8.79995 3.936 11.136 1.6 14 1.6C16.864 1.6 19.2 3.936 19.2 6.8C19.2 8.264 18.584 9.59201 17.6 10.536V12.568C19.52 11.36 20.8 9.232 20.8 6.8C20.8 3.048 17.752 0 14 0Z" fill="white"/>
<path d="M30.8265 16.8C29.4497 16.8 28.8225 17.7504 28.8225 18.8248V20.8C28.8225 21.2416 28.4649 21.6 28.0225 21.6C27.5801 21.6 27.2001 21.2416 27.2001 20.8V17.1832C27.2169 16.2168 26.6177 15.2 25.2169 15.2C23.8161 15.2 23.2121 16.2904 23.2121 17.2048V20.0104C23.2121 20.452 22.8545 20.8104 22.4121 20.8104C21.9705 20.8104 21.6001 20.4528 21.5993 20.0112V20.0104V16.4048C21.6001 15.596 20.9753 14.4 19.6081 14.4C18.2401 14.4 17.6033 15.596 17.6033 16.4048V20.8C17.6033 21.2416 17.2449 21.6 16.8033 21.6C16.3617 21.6 16.0001 21.2416 16.0001 20.8V6.83839C16.0001 5.36719 14.8041 4.83359 13.9985 4.83359C13.2257 4.83359 12.0001 5.35279 12.0001 6.74559V23.4376C11.32 23.8456 8.80005 24.9456 8.80005 28.8C8.80005 32 10.8128 34.5256 11.9921 36.1424C13.1745 37.764 14.6169 39.9472 19.0337 39.9952C19.0633 39.9968 25.6001 40 25.6001 40C29.1393 40 32.8001 37.3072 32.8001 32.8C32.8001 32.8 32.8001 19.1304 32.8001 18.8664C32.8001 17.7664 32.2033 16.8 30.8265 16.8Z" fill="white"/>
</g>
<defs>
<clipPath id="clip0">
<rect width="40" height="40" fill="white"/>
</clipPath>
</defs>
</svg>
